<svg width="80" height="80" viewBox="0 0 80 80" fill="none" xmlns="http://www.w3.org/2000/svg">
<path d="M0 40C0 17.9086 17.9086 0 40 0C62.0914 0 80 17.9086 80 40C80 62.0914 62.0914 80 40 80C17.9086 80 0 62.0914 0 40Z" fill="#FF1744"/>
<path d="M53.3333 41.6667C53.3333 50 47.5 54.1667 40.5667 56.5833C40.2036 56.7064 39.8092 56.7005 39.45 56.5667C32.5 54.1667 26.6667 50 26.6667 41.6667V30C26.6667 29.558 26.8423 29.134 27.1548 28.8215C27.4674 28.5089 27.8913 28.3333 28.3333 28.3333C31.6667 28.3333 35.8333 26.3333 38.7333 23.8C39.0864 23.4983 39.5356 23.3326 40 23.3326C40.4644 23.3326 40.9136 23.4983 41.2667 23.8C44.1833 26.35 48.3333 28.3333 51.6667 28.3333C52.1087 28.3333 52.5326 28.5089 52.8452 28.8215C53.1577 29.134 53.3333 29.558 53.3333 30V41.6667Z" stroke="white" stroke-width="3.33333" stroke-linecap="round" stroke-linejoin="round"/>
</svg>
