<svg width="560" height="280" viewBox="0 0 560 280" fill="none" xmlns="http://www.w3.org/2000/svg">
<path d="M230 29H530" stroke="#E0E0E0" stroke-dasharray="3 3"/>
<path d="M230 77H530" stroke="#E0E0E0" stroke-dasharray="3 3"/>
<path d="M230 125H530" stroke="#E0E0E0" stroke-dasharray="3 3"/>
<path d="M230 173H530" stroke="#E0E0E0" stroke-dasharray="3 3"/>
<path d="M230 221H530" stroke="#E0E0E0" stroke-dasharray="3 3"/>
<path d="M230 5H530" stroke="#E0E0E0" stroke-dasharray="3 3"/>
<path d="M230 245H530" stroke="#E0E0E0" stroke-dasharray="3 3"/>
<path d="M230 5V245" stroke="#E0E0E0" stroke-dasharray="3 3"/>
<path d="M305 5V245" stroke="#E0E0E0" stroke-dasharray="3 3"/>
<path d="M380 5V245" stroke="#E0E0E0" stroke-dasharray="3 3"/>
<path d="M455 5V245" stroke="#E0E0E0" stroke-dasharray="3 3"/>
<path d="M530 5V245" stroke="#E0E0E0" stroke-dasharray="3 3"/>
<path d="M230 245H530" stroke="#666666"/>
<path d="M230 251V245" stroke="#666666"/>
<path d="M230 261.639C229.358 261.639 228.811 261.465 228.359 261.115C227.908 260.763 227.563 260.253 227.324 259.585C227.085 258.915 226.966 258.105 226.966 257.156C226.966 256.213 227.085 255.408 227.324 254.74C227.565 254.07 227.912 253.558 228.364 253.206C228.818 252.851 229.364 252.673 230 252.673C230.636 252.673 231.18 252.851 231.632 253.206C232.087 253.558 232.433 254.07 232.672 254.74C232.913 255.408 233.034 256.213 233.034 257.156C233.034 258.105 232.915 258.915 232.676 259.585C232.438 260.253 232.092 260.763 231.641 261.115C231.189 261.465 230.642 261.639 230 261.639ZM230 260.702C230.636 260.702 231.131 260.395 231.483 259.781C231.835 259.168 232.011 258.293 232.011 257.156C232.011 256.401 231.93 255.757 231.768 255.226C231.609 254.695 231.379 254.29 231.078 254.011C230.78 253.733 230.42 253.594 230 253.594C229.369 253.594 228.876 253.905 228.521 254.527C228.166 255.146 227.989 256.023 227.989 257.156C227.989 257.912 228.068 258.554 228.227 259.083C228.386 259.611 228.615 260.013 228.913 260.288C229.214 260.564 229.577 260.702 230 260.702Z" fill="#99A1AF"/>
<path d="M305 251V245" stroke="#666666"/>
<path d="M298.521 261.52V260.753L301.401 257.6C301.739 257.23 302.018 256.909 302.237 256.636C302.455 256.361 302.617 256.102 302.722 255.861C302.83 255.617 302.884 255.361 302.884 255.094C302.884 254.787 302.81 254.521 302.663 254.297C302.518 254.073 302.319 253.899 302.066 253.777C301.813 253.655 301.529 253.594 301.214 253.594C300.879 253.594 300.586 253.663 300.336 253.803C300.089 253.939 299.897 254.131 299.761 254.378C299.627 254.625 299.56 254.915 299.56 255.247H298.555C298.555 254.736 298.673 254.287 298.908 253.901C299.144 253.514 299.465 253.213 299.871 252.997C300.281 252.781 300.739 252.673 301.248 252.673C301.759 252.673 302.212 252.781 302.607 252.997C303.002 253.213 303.312 253.504 303.536 253.871C303.761 254.237 303.873 254.645 303.873 255.094C303.873 255.415 303.815 255.729 303.698 256.036C303.585 256.34 303.386 256.679 303.102 257.054C302.82 257.426 302.43 257.881 301.93 258.418L299.969 260.514V260.583H304.026V261.52H298.521ZM308.633 261.639C307.991 261.639 307.444 261.465 306.992 261.115C306.54 260.763 306.195 260.253 305.957 259.585C305.718 258.915 305.599 258.105 305.599 257.156C305.599 256.213 305.718 255.408 305.957 254.74C306.198 254.07 306.545 253.558 306.996 253.206C307.451 252.851 307.996 252.673 308.633 252.673C309.269 252.673 309.813 252.851 310.265 253.206C310.719 253.558 311.066 254.07 311.305 254.74C311.546 255.408 311.667 256.213 311.667 257.156C311.667 258.105 311.548 258.915 311.309 259.585C311.07 260.253 310.725 260.763 310.273 261.115C309.822 261.465 309.275 261.639 308.633 261.639ZM308.633 260.702C309.269 260.702 309.763 260.395 310.116 259.781C310.468 259.168 310.644 258.293 310.644 257.156C310.644 256.401 310.563 255.757 310.401 255.226C310.242 254.695 310.012 254.29 309.711 254.011C309.413 253.733 309.053 253.594 308.633 253.594C308.002 253.594 307.509 253.905 307.154 254.527C306.799 255.146 306.621 256.023 306.621 257.156C306.621 257.912 306.701 258.554 306.86 259.083C307.019 259.611 307.248 260.013 307.546 260.288C307.847 260.564 308.21 260.702 308.633 260.702Z" fill="#99A1AF"/>
<path d="M380 251V245" stroke="#666666"/>
<path d="M372.599 259.73V258.861L376.434 252.793H377.065V254.139H376.639L373.741 258.725V258.793H378.906V259.73H372.599ZM376.707 261.52V259.466V259.061V252.793H377.713V261.52H376.707ZM383.35 261.639C382.708 261.639 382.161 261.465 381.709 261.115C381.257 260.763 380.912 260.253 380.673 259.585C380.435 258.915 380.316 258.105 380.316 257.156C380.316 256.213 380.435 255.408 380.673 254.74C380.915 254.07 381.262 253.558 381.713 253.206C382.168 252.851 382.713 252.673 383.35 252.673C383.986 252.673 384.53 252.851 384.982 253.206C385.436 253.558 385.783 254.07 386.021 254.74C386.263 255.408 386.384 256.213 386.384 257.156C386.384 258.105 386.264 258.915 386.026 259.585C385.787 260.253 385.442 260.763 384.99 261.115C384.539 261.465 383.992 261.639 383.35 261.639ZM383.35 260.702C383.986 260.702 384.48 260.395 384.833 259.781C385.185 259.168 385.361 258.293 385.361 257.156C385.361 256.401 385.28 255.757 385.118 255.226C384.959 254.695 384.729 254.29 384.428 254.011C384.129 253.733 383.77 253.594 383.35 253.594C382.719 253.594 382.226 253.905 381.871 254.527C381.516 255.146 381.338 256.023 381.338 257.156C381.338 257.912 381.418 258.554 381.577 259.083C381.736 259.611 381.965 260.013 382.263 260.288C382.564 260.564 382.926 260.702 383.35 260.702Z" fill="#99A1AF"/>
<path d="M455 251V245" stroke="#666666"/>
<path d="M451.307 261.639C450.949 261.634 450.591 261.565 450.233 261.435C449.875 261.304 449.548 261.084 449.253 260.774C448.958 260.462 448.72 260.04 448.541 259.509C448.362 258.975 448.273 258.304 448.273 257.497C448.273 256.725 448.345 256.04 448.49 255.443C448.635 254.844 448.845 254.34 449.121 253.931C449.396 253.519 449.729 253.206 450.118 252.993C450.51 252.78 450.952 252.673 451.443 252.673C451.932 252.673 452.367 252.771 452.747 252.967C453.131 253.161 453.443 253.431 453.685 253.777C453.926 254.124 454.083 254.523 454.154 254.975H453.114C453.017 254.583 452.83 254.257 452.551 253.999C452.273 253.74 451.904 253.611 451.443 253.611C450.767 253.611 450.235 253.905 449.845 254.493C449.459 255.081 449.264 255.906 449.262 256.969H449.33C449.489 256.727 449.678 256.521 449.896 256.351C450.118 256.178 450.362 256.044 450.629 255.95C450.896 255.857 451.179 255.81 451.477 255.81C451.977 255.81 452.435 255.935 452.85 256.185C453.264 256.432 453.597 256.774 453.847 257.212C454.097 257.646 454.222 258.145 454.222 258.708C454.222 259.247 454.101 259.742 453.86 260.19C453.618 260.636 453.279 260.992 452.841 261.256C452.406 261.517 451.895 261.645 451.307 261.639ZM451.307 260.702C451.665 260.702 451.986 260.612 452.27 260.433C452.557 260.254 452.783 260.014 452.948 259.713C453.115 259.412 453.199 259.077 453.199 258.708C453.199 258.347 453.118 258.019 452.956 257.723C452.797 257.425 452.577 257.188 452.296 257.011C452.017 256.835 451.699 256.747 451.341 256.747C451.071 256.747 450.82 256.801 450.587 256.909C450.354 257.014 450.149 257.159 449.973 257.344C449.8 257.529 449.664 257.74 449.564 257.979C449.465 258.215 449.415 258.463 449.415 258.725C449.415 259.071 449.496 259.395 449.658 259.696C449.823 259.997 450.047 260.24 450.331 260.425C450.618 260.61 450.943 260.702 451.307 260.702ZM458.744 261.639C458.102 261.639 457.555 261.465 457.104 261.115C456.652 260.763 456.307 260.253 456.068 259.585C455.829 258.915 455.71 258.105 455.71 257.156C455.71 256.213 455.829 255.408 456.068 254.74C456.309 254.07 456.656 253.558 457.108 253.206C457.562 252.851 458.108 252.673 458.744 252.673C459.381 252.673 459.925 252.851 460.376 253.206C460.831 253.558 461.177 254.07 461.416 254.74C461.657 255.408 461.778 256.213 461.778 257.156C461.778 258.105 461.659 258.915 461.42 259.585C461.182 260.253 460.836 260.763 460.385 261.115C459.933 261.465 459.386 261.639 458.744 261.639ZM458.744 260.702C459.381 260.702 459.875 260.395 460.227 259.781C460.579 259.168 460.756 258.293 460.756 257.156C460.756 256.401 460.675 255.757 460.513 255.226C460.354 254.695 460.123 254.29 459.822 254.011C459.524 253.733 459.165 253.594 458.744 253.594C458.113 253.594 457.621 253.905 457.265 254.527C456.91 255.146 456.733 256.023 456.733 257.156C456.733 257.912 456.812 258.554 456.971 259.083C457.131 259.611 457.359 260.013 457.657 260.288C457.959 260.564 458.321 260.702 458.744 260.702Z" fill="#99A1AF"/>
<path d="M530 251V245" stroke="#666666"/>
<path d="M526.252 261.639C525.666 261.639 525.149 261.536 524.7 261.328C524.254 261.118 523.906 260.83 523.656 260.463C523.406 260.094 523.283 259.673 523.286 259.202C523.283 258.833 523.355 258.492 523.503 258.179C523.651 257.864 523.852 257.601 524.108 257.391C524.367 257.178 524.655 257.043 524.973 256.986V256.935C524.556 256.827 524.223 256.592 523.976 256.232C523.729 255.868 523.607 255.455 523.61 254.992C523.607 254.548 523.719 254.152 523.946 253.803C524.173 253.453 524.486 253.178 524.884 252.976C525.284 252.774 525.74 252.673 526.252 252.673C526.757 252.673 527.209 252.774 527.607 252.976C528.004 253.178 528.317 253.453 528.544 253.803C528.774 254.152 528.891 254.548 528.894 254.992C528.891 255.455 528.764 255.868 528.514 256.232C528.267 256.592 527.939 256.827 527.53 256.935V256.986C527.845 257.043 528.129 257.178 528.382 257.391C528.635 257.601 528.837 257.864 528.987 258.179C529.138 258.492 529.215 258.833 529.218 259.202C529.215 259.673 529.087 260.094 528.834 260.463C528.584 260.83 528.236 261.118 527.79 261.328C527.347 261.536 526.834 261.639 526.252 261.639ZM526.252 260.702C526.646 260.702 526.987 260.638 527.274 260.51C527.561 260.382 527.783 260.202 527.939 259.969C528.095 259.736 528.175 259.463 528.178 259.151C528.175 258.821 528.09 258.53 527.922 258.277C527.754 258.024 527.526 257.825 527.236 257.681C526.949 257.536 526.621 257.463 526.252 257.463C525.879 257.463 525.547 257.536 525.254 257.681C524.965 257.825 524.736 258.024 524.568 258.277C524.404 258.53 524.323 258.821 524.325 259.151C524.323 259.463 524.398 259.736 524.551 259.969C524.708 260.202 524.931 260.382 525.22 260.51C525.51 260.638 525.854 260.702 526.252 260.702ZM526.252 256.56C526.564 256.56 526.841 256.497 527.083 256.372C527.327 256.247 527.519 256.073 527.658 255.848C527.797 255.624 527.868 255.361 527.871 255.06C527.868 254.764 527.798 254.507 527.662 254.288C527.526 254.067 527.337 253.896 527.095 253.777C526.854 253.655 526.573 253.594 526.252 253.594C525.925 253.594 525.639 253.655 525.395 253.777C525.151 253.896 524.962 254.067 524.828 254.288C524.695 254.507 524.629 254.764 524.632 255.06C524.629 255.361 524.696 255.624 524.833 255.848C524.972 256.073 525.164 256.247 525.408 256.372C525.652 256.497 525.933 256.56 526.252 256.56ZM533.697 261.639C533.055 261.639 532.508 261.465 532.057 261.115C531.605 260.763 531.26 260.253 531.021 259.585C530.782 258.915 530.663 258.105 530.663 257.156C530.663 256.213 530.782 255.408 531.021 254.74C531.263 254.07 531.609 253.558 532.061 253.206C532.515 252.851 533.061 252.673 533.697 252.673C534.334 252.673 534.878 252.851 535.329 253.206C535.784 253.558 536.131 254.07 536.369 254.74C536.611 255.408 536.731 256.213 536.731 257.156C536.731 258.105 536.612 258.915 536.373 259.585C536.135 260.253 535.79 260.763 535.338 261.115C534.886 261.465 534.339 261.639 533.697 261.639ZM533.697 260.702C534.334 260.702 534.828 260.395 535.18 259.781C535.532 259.168 535.709 258.293 535.709 257.156C535.709 256.401 535.628 255.757 535.466 255.226C535.307 254.695 535.077 254.29 534.775 254.011C534.477 253.733 534.118 253.594 533.697 253.594C533.067 253.594 532.574 253.905 532.219 254.527C531.863 255.146 531.686 256.023 531.686 257.156C531.686 257.912 531.765 258.554 531.925 259.083C532.084 259.611 532.312 260.013 532.611 260.288C532.912 260.564 533.274 260.702 533.697 260.702Z" fill="#99A1AF"/>
<path d="M230 5V245" stroke="#666666"/>
<path d="M224 29H230" stroke="#666666"/>
<path d="M177.764 18.5327H179.025L181.991 25.7771H182.093L185.059 18.5327H186.321V27.26H185.332V20.6293H185.247L182.52 27.26H181.565L178.838 20.6293H178.752V27.26H177.764V18.5327ZM190.229 27.4134C189.815 27.4134 189.438 27.3353 189.1 27.179C188.762 27.02 188.494 26.7913 188.295 26.493C188.096 26.1918 187.996 25.8282 187.996 25.4021C187.996 25.0271 188.07 24.7231 188.218 24.4901C188.366 24.2543 188.563 24.0697 188.81 23.9361C189.058 23.8026 189.33 23.7032 189.629 23.6379C189.93 23.5697 190.232 23.5157 190.536 23.4759C190.934 23.4248 191.256 23.3864 191.504 23.3609C191.754 23.3325 191.935 23.2856 192.049 23.2202C192.165 23.1549 192.224 23.0413 192.224 22.8793V22.8452C192.224 22.4248 192.109 22.0981 191.879 21.8651C191.651 21.6322 191.306 21.5157 190.843 21.5157C190.363 21.5157 189.987 21.6208 189.714 21.831C189.441 22.0413 189.249 22.2657 189.138 22.5043L188.184 22.1634C188.354 21.7657 188.582 21.456 188.866 21.2344C189.153 21.01 189.465 20.8538 189.803 20.7657C190.144 20.6748 190.479 20.6293 190.809 20.6293C191.019 20.6293 191.261 20.6549 191.533 20.706C191.809 20.7543 192.075 20.8552 192.33 21.0086C192.589 21.162 192.803 21.3935 192.974 21.7032C193.144 22.0129 193.229 22.4276 193.229 22.9475V27.26H192.224V26.3736H192.173C192.104 26.5157 191.991 26.6677 191.832 26.8296C191.673 26.9915 191.461 27.1293 191.197 27.243C190.933 27.3566 190.61 27.4134 190.229 27.4134ZM190.383 26.51C190.781 26.51 191.116 26.4319 191.388 26.2756C191.664 26.1194 191.871 25.9177 192.011 25.6705C192.153 25.4234 192.224 25.1634 192.224 24.8907V23.9702C192.181 24.0214 192.087 24.0682 191.942 24.1109C191.8 24.1506 191.636 24.1861 191.448 24.2174C191.263 24.2458 191.083 24.2714 190.907 24.2941C190.734 24.314 190.593 24.331 190.485 24.3452C190.224 24.3793 189.979 24.4347 189.752 24.5114C189.528 24.5853 189.346 24.6975 189.207 24.8481C189.07 24.9958 189.002 25.1975 189.002 25.4532C189.002 25.8026 189.131 26.0668 189.39 26.2458C189.651 26.4219 189.982 26.51 190.383 26.51ZM195.065 27.26V20.7146H196.037V21.7032H196.105C196.224 21.3793 196.44 21.1165 196.752 20.9148C197.065 20.7131 197.417 20.6123 197.809 20.6123C197.883 20.6123 197.975 20.6137 198.086 20.6165C198.197 20.6194 198.281 20.6236 198.338 20.6293V21.6521C198.304 21.6435 198.225 21.6307 198.103 21.6137C197.984 21.5938 197.858 21.5839 197.724 21.5839C197.406 21.5839 197.122 21.6506 196.872 21.7842C196.625 21.9148 196.429 22.0967 196.284 22.3296C196.142 22.5597 196.071 22.8225 196.071 23.118V27.26H195.065ZM199.53 27.26V20.7146H200.536V27.26H199.53ZM200.041 19.6236C199.845 19.6236 199.676 19.5569 199.534 19.4234C199.395 19.2898 199.325 19.1293 199.325 18.9418C199.325 18.7543 199.395 18.5938 199.534 18.4603C199.676 18.3268 199.845 18.26 200.041 18.26C200.237 18.26 200.405 18.3268 200.544 18.4603C200.686 18.5938 200.757 18.7543 200.757 18.9418C200.757 19.1293 200.686 19.2898 200.544 19.4234C200.405 19.5569 200.237 19.6236 200.041 19.6236ZM204.304 27.4134C203.889 27.4134 203.512 27.3353 203.174 27.179C202.836 27.02 202.568 26.7913 202.369 26.493C202.17 26.1918 202.071 25.8282 202.071 25.4021C202.071 25.0271 202.145 24.7231 202.292 24.4901C202.44 24.2543 202.637 24.0697 202.885 23.9361C203.132 23.8026 203.404 23.7032 203.703 23.6379C204.004 23.5697 204.306 23.5157 204.61 23.4759C205.008 23.4248 205.331 23.3864 205.578 23.3609C205.828 23.3325 206.01 23.2856 206.123 23.2202C206.24 23.1549 206.298 23.0413 206.298 22.8793V22.8452C206.298 22.4248 206.183 22.0981 205.953 21.8651C205.725 21.6322 205.38 21.5157 204.917 21.5157C204.437 21.5157 204.061 21.6208 203.788 21.831C203.515 22.0413 203.324 22.2657 203.213 22.5043L202.258 22.1634C202.429 21.7657 202.656 21.456 202.94 21.2344C203.227 21.01 203.539 20.8538 203.877 20.7657C204.218 20.6748 204.554 20.6293 204.883 20.6293C205.093 20.6293 205.335 20.6549 205.608 20.706C205.883 20.7543 206.149 20.8552 206.404 21.0086C206.663 21.162 206.877 21.3935 207.048 21.7032C207.218 22.0129 207.304 22.4276 207.304 22.9475V27.26H206.298V26.3736H206.247C206.179 26.5157 206.065 26.6677 205.906 26.8296C205.747 26.9915 205.535 27.1293 205.271 27.243C205.007 27.3566 204.684 27.4134 204.304 27.4134ZM204.457 26.51C204.855 26.51 205.19 26.4319 205.463 26.2756C205.738 26.1194 205.946 25.9177 206.085 25.6705C206.227 25.4234 206.298 25.1634 206.298 24.8907V23.9702C206.255 24.0214 206.162 24.0682 206.017 24.1109C205.875 24.1506 205.71 24.1861 205.522 24.2174C205.338 24.2458 205.157 24.2714 204.981 24.2941C204.808 24.314 204.667 24.331 204.559 24.3452C204.298 24.3793 204.054 24.4347 203.826 24.5114C203.602 24.5853 203.42 24.6975 203.281 24.8481C203.145 24.9958 203.076 25.1975 203.076 25.4532C203.076 25.8026 203.206 26.0668 203.464 26.2458C203.725 26.4219 204.056 26.51 204.457 26.51ZM210.145 23.3225V27.26H209.139V20.7146H210.111V21.7373H210.196C210.349 21.4049 210.582 21.1379 210.895 20.9361C211.207 20.7316 211.611 20.6293 212.105 20.6293C212.548 20.6293 212.936 20.7202 213.268 20.9021C213.601 21.081 213.859 21.3538 214.044 21.7202C214.229 22.0839 214.321 22.5441 214.321 23.1009V27.26H213.315V23.1691C213.315 22.6549 213.182 22.2543 212.915 21.9674C212.648 21.6776 212.281 21.5327 211.815 21.5327C211.494 21.5327 211.207 21.6023 210.955 21.7415C210.705 21.8807 210.507 22.0839 210.362 22.3509C210.217 22.618 210.145 22.9418 210.145 23.3225ZM218.085 27.4134C217.67 27.4134 217.294 27.3353 216.956 27.179C216.618 27.02 216.349 26.7913 216.15 26.493C215.951 26.1918 215.852 25.8282 215.852 25.4021C215.852 25.0271 215.926 24.7231 216.074 24.4901C216.221 24.2543 216.419 24.0697 216.666 23.9361C216.913 23.8026 217.186 23.7032 217.484 23.6379C217.785 23.5697 218.088 23.5157 218.392 23.4759C218.789 23.4248 219.112 23.3864 219.359 23.3609C219.609 23.3325 219.791 23.2856 219.904 23.2202C220.021 23.1549 220.079 23.0413 220.079 22.8793V22.8452C220.079 22.4248 219.964 22.0981 219.734 21.8651C219.507 21.6322 219.162 21.5157 218.699 21.5157C218.218 21.5157 217.842 21.6208 217.569 21.831C217.297 22.0413 217.105 22.2657 216.994 22.5043L216.039 22.1634C216.21 21.7657 216.437 21.456 216.721 21.2344C217.008 21.01 217.321 20.8538 217.659 20.7657C218 20.6748 218.335 20.6293 218.664 20.6293C218.875 20.6293 219.116 20.6549 219.389 20.706C219.664 20.7543 219.93 20.8552 220.186 21.0086C220.444 21.162 220.659 21.3935 220.829 21.7032C221 22.0129 221.085 22.4276 221.085 22.9475V27.26H220.079V26.3736H220.028C219.96 26.5157 219.846 26.6677 219.687 26.8296C219.528 26.9915 219.316 27.1293 219.052 27.243C218.788 27.3566 218.466 27.4134 218.085 27.4134ZM218.238 26.51C218.636 26.51 218.971 26.4319 219.244 26.2756C219.52 26.1194 219.727 25.9177 219.866 25.6705C220.008 25.4234 220.079 25.1634 220.079 24.8907V23.9702C220.037 24.0214 219.943 24.0682 219.798 24.1109C219.656 24.1506 219.491 24.1861 219.304 24.2174C219.119 24.2458 218.939 24.2714 218.762 24.2941C218.589 24.314 218.449 24.331 218.341 24.3452C218.079 24.3793 217.835 24.4347 217.608 24.5114C217.383 24.5853 217.201 24.6975 217.062 24.8481C216.926 24.9958 216.858 25.1975 216.858 25.4532C216.858 25.8026 216.987 26.0668 217.245 26.2458C217.507 26.4219 217.838 26.51 218.238 26.51Z" fill="#99A1AF"/>
<path d="M186.615 33.26H185.558C185.495 32.956 185.386 32.689 185.23 32.4589C185.076 32.2288 184.889 32.0356 184.667 31.8793C184.449 31.7202 184.206 31.6009 183.939 31.5214C183.672 31.4418 183.393 31.4021 183.103 31.4021C182.575 31.4021 182.096 31.5356 181.667 31.8026C181.241 32.0697 180.902 32.4631 180.649 32.983C180.399 33.5029 180.274 34.1407 180.274 34.8964C180.274 35.6521 180.399 36.2898 180.649 36.8097C180.902 37.3296 181.241 37.7231 181.667 37.9901C182.096 38.2572 182.575 38.3907 183.103 38.3907C183.393 38.3907 183.672 38.3509 183.939 38.2714C184.206 38.1918 184.449 38.0739 184.667 37.9177C184.889 37.7586 185.076 37.564 185.23 37.3339C185.386 37.1009 185.495 36.8339 185.558 36.5327H186.615C186.535 36.9788 186.39 37.3779 186.18 37.7302C185.97 38.0825 185.708 38.3822 185.396 38.6293C185.083 38.8736 184.733 39.0597 184.343 39.1876C183.957 39.3154 183.544 39.3793 183.103 39.3793C182.359 39.3793 181.697 39.1975 181.118 38.8339C180.538 38.4702 180.082 37.9532 179.75 37.2827C179.417 36.6123 179.251 35.8168 179.251 34.8964C179.251 33.9759 179.417 33.1805 179.75 32.51C180.082 31.8396 180.538 31.3225 181.118 30.9589C181.697 30.5952 182.359 30.4134 183.103 30.4134C183.544 30.4134 183.957 30.4773 184.343 30.6052C184.733 30.733 185.083 30.9205 185.396 31.1677C185.708 31.412 185.97 31.7103 186.18 32.0626C186.39 32.412 186.535 32.8111 186.615 33.26ZM189.192 35.3225V39.26H188.186V30.5327H189.192V33.7373H189.277C189.43 33.3992 189.661 33.1307 189.967 32.9319C190.277 32.7302 190.689 32.6293 191.203 32.6293C191.649 32.6293 192.04 32.7188 192.375 32.8978C192.71 33.0739 192.97 33.3452 193.155 33.7117C193.342 34.0754 193.436 34.5384 193.436 35.1009V39.26H192.43V35.1691C192.43 34.6492 192.295 34.2472 192.026 33.9631C191.759 33.6762 191.388 33.5327 190.913 33.5327C190.584 33.5327 190.288 33.6023 190.027 33.7415C189.768 33.8807 189.564 34.0839 189.413 34.3509C189.266 34.618 189.192 34.9418 189.192 35.3225ZM197.202 39.4134C196.787 39.4134 196.411 39.3353 196.073 39.179C195.735 39.02 195.466 38.7913 195.267 38.493C195.069 38.1918 194.969 37.8282 194.969 37.4021C194.969 37.0271 195.043 36.7231 195.191 36.4901C195.338 36.2543 195.536 36.0697 195.783 35.9361C196.03 35.8026 196.303 35.7032 196.601 35.6379C196.902 35.5697 197.205 35.5157 197.509 35.4759C197.907 35.4248 198.229 35.3864 198.476 35.3609C198.726 35.3325 198.908 35.2856 199.022 35.2202C199.138 35.1549 199.196 35.0413 199.196 34.8793V34.8452C199.196 34.4248 199.081 34.0981 198.851 33.8651C198.624 33.6322 198.279 33.5157 197.816 33.5157C197.336 33.5157 196.959 33.6208 196.686 33.831C196.414 34.0413 196.222 34.2657 196.111 34.5043L195.157 34.1634C195.327 33.7657 195.554 33.456 195.838 33.2344C196.125 33.01 196.438 32.8538 196.776 32.7657C197.117 32.6748 197.452 32.6293 197.782 32.6293C197.992 32.6293 198.233 32.6549 198.506 32.706C198.782 32.7543 199.047 32.8552 199.303 33.0086C199.561 33.162 199.776 33.3935 199.946 33.7032C200.117 34.0129 200.202 34.4276 200.202 34.9475V39.26H199.196V38.3736H199.145C199.077 38.5157 198.963 38.6677 198.804 38.8296C198.645 38.9915 198.434 39.1293 198.169 39.243C197.905 39.3566 197.583 39.4134 197.202 39.4134ZM197.355 38.51C197.753 38.51 198.088 38.4319 198.361 38.2756C198.637 38.1194 198.844 37.9177 198.983 37.6705C199.125 37.4234 199.196 37.1634 199.196 36.8907V35.9702C199.154 36.0214 199.06 36.0682 198.915 36.1109C198.773 36.1506 198.608 36.1861 198.421 36.2174C198.236 36.2458 198.056 36.2714 197.88 36.2941C197.706 36.314 197.566 36.331 197.458 36.3452C197.196 36.3793 196.952 36.4347 196.725 36.5114C196.5 36.5853 196.319 36.6975 196.179 36.8481C196.043 36.9958 195.975 37.1975 195.975 37.4532C195.975 37.8026 196.104 38.0668 196.363 38.2458C196.624 38.4219 196.955 38.51 197.355 38.51ZM204.697 39.3964C204.083 39.3964 203.555 39.2515 203.112 38.9617C202.668 38.6719 202.327 38.2728 202.089 37.7643C201.85 37.2557 201.731 36.6748 201.731 36.0214C201.731 35.3566 201.853 34.77 202.097 34.2614C202.344 33.7501 202.688 33.3509 203.129 33.064C203.572 32.7742 204.089 32.6293 204.68 32.6293C205.14 32.6293 205.555 32.7146 205.924 32.885C206.293 33.0555 206.596 33.2941 206.832 33.6009C207.067 33.9077 207.214 34.2657 207.271 34.6748H206.265C206.188 34.3765 206.018 34.1123 205.754 33.8822C205.492 33.6492 205.14 33.5327 204.697 33.5327C204.305 33.5327 203.961 33.635 203.665 33.8396C203.373 34.0413 203.144 34.3268 202.979 34.6961C202.817 35.0626 202.737 35.493 202.737 35.9873C202.737 36.493 202.816 36.9333 202.975 37.3083C203.137 37.6833 203.364 37.9745 203.657 38.1819C203.952 38.3893 204.299 38.493 204.697 38.493C204.958 38.493 205.195 38.4475 205.408 38.3566C205.621 38.2657 205.802 38.135 205.95 37.9646C206.097 37.7941 206.202 37.5896 206.265 37.3509H207.271C207.214 37.7373 207.073 38.0853 206.849 38.395C206.627 38.7018 206.333 38.9461 205.967 39.1279C205.603 39.3069 205.18 39.3964 204.697 39.3964ZM211.4 39.3964C210.809 39.3964 210.29 39.2557 209.844 38.9745C209.401 38.6932 209.055 38.2998 208.805 37.7941C208.558 37.2884 208.434 36.6975 208.434 36.0214C208.434 35.3396 208.558 34.7444 208.805 34.2359C209.055 33.7273 209.401 33.3325 209.844 33.0512C210.29 32.77 210.809 32.6293 211.4 32.6293C211.991 32.6293 212.508 32.77 212.951 33.0512C213.397 33.3325 213.744 33.7273 213.991 34.2359C214.241 34.7444 214.366 35.3396 214.366 36.0214C214.366 36.6975 214.241 37.2884 213.991 37.7941C213.744 38.2998 213.397 38.6932 212.951 38.9745C212.508 39.2557 211.991 39.3964 211.4 39.3964ZM211.4 38.493C211.849 38.493 212.218 38.3779 212.508 38.1478C212.798 37.9177 213.012 37.6151 213.151 37.2401C213.29 36.8651 213.36 36.4589 213.36 36.0214C213.36 35.5839 213.29 35.1762 213.151 34.7984C213.012 34.4205 212.798 34.1151 212.508 33.8822C212.218 33.6492 211.849 33.5327 211.4 33.5327C210.951 33.5327 210.582 33.6492 210.292 33.8822C210.002 34.1151 209.788 34.4205 209.648 34.7984C209.509 35.1762 209.44 35.5839 209.44 36.0214C209.44 36.4589 209.509 36.8651 209.648 37.2401C209.788 37.6151 210.002 37.9177 210.292 38.1478C210.582 38.3779 210.951 38.493 211.4 38.493ZM210.94 31.8282L211.979 29.8509H213.156L211.826 31.8282H210.94ZM216.907 35.3225V39.26H215.901V32.7146H216.873V33.7373H216.958C217.111 33.4049 217.344 33.1379 217.657 32.9361C217.969 32.7316 218.373 32.6293 218.867 32.6293C219.31 32.6293 219.698 32.7202 220.03 32.9021C220.363 33.081 220.621 33.3538 220.806 33.7202C220.99 34.0839 221.083 34.5441 221.083 35.1009V39.26H220.077V35.1691C220.077 34.6549 219.944 34.2543 219.676 33.9674C219.409 33.6776 219.043 33.5327 218.577 33.5327C218.256 33.5327 217.969 33.6023 217.716 33.7415C217.466 33.8807 217.269 34.0839 217.124 34.3509C216.979 34.618 216.907 34.9418 216.907 35.3225Z" fill="#99A1AF"/>
<path d="M224 77H230" stroke="#666666"/>
<path d="M125.118 81.26H124.01L127.214 72.5327H128.305L131.51 81.26H130.402L127.794 73.9134H127.726L125.118 81.26ZM125.527 77.8509H129.993V78.7884H125.527V77.8509ZM133.739 77.3225V81.26H132.733V74.7146H133.705V75.7373H133.79C133.943 75.4049 134.176 75.1379 134.489 74.9361C134.801 74.7316 135.205 74.6293 135.699 74.6293C136.142 74.6293 136.53 74.7202 136.862 74.9021C137.195 75.081 137.453 75.3538 137.638 75.7202C137.822 76.0839 137.915 76.5441 137.915 77.1009V81.26H136.909V77.1691C136.909 76.6549 136.776 76.2543 136.509 75.9674C136.241 75.6776 135.875 75.5327 135.409 75.5327C135.088 75.5327 134.801 75.6023 134.548 75.7415C134.298 75.8807 134.101 76.0839 133.956 76.3509C133.811 76.618 133.739 76.9418 133.739 77.3225ZM142.224 81.3964C141.679 81.3964 141.197 81.2586 140.779 80.983C140.362 80.7046 140.035 80.3126 139.799 79.8069C139.564 79.2984 139.446 78.6975 139.446 78.0043C139.446 77.3168 139.564 76.7202 139.799 76.2146C140.035 75.7089 140.363 75.3182 140.784 75.0427C141.204 74.7671 141.69 74.6293 142.241 74.6293C142.667 74.6293 143.004 74.7004 143.251 74.8424C143.501 74.9816 143.691 75.1407 143.822 75.3197C143.956 75.4958 144.059 75.6407 144.133 75.7543H144.218V72.5327H145.224V81.26H144.252V80.2543H144.133C144.059 80.3736 143.954 80.5242 143.818 80.706C143.681 80.885 143.487 81.0455 143.234 81.1876C142.981 81.3268 142.645 81.3964 142.224 81.3964ZM142.36 80.493C142.764 80.493 143.105 80.3879 143.383 80.1776C143.662 79.9646 143.873 79.6705 144.018 79.2955C144.163 78.9177 144.235 78.4816 144.235 77.9873C144.235 77.4986 144.164 77.0711 144.022 76.7046C143.88 76.3353 143.67 76.0484 143.392 75.8438C143.113 75.6364 142.77 75.5327 142.36 75.5327C141.934 75.5327 141.579 75.6421 141.295 75.8609C141.014 76.0768 140.802 76.3708 140.66 76.743C140.521 77.1123 140.451 77.5271 140.451 77.9873C140.451 78.4532 140.522 78.8765 140.664 79.2572C140.809 79.635 141.022 79.9361 141.304 80.1606C141.588 80.3822 141.94 80.493 142.36 80.493ZM147.206 81.26V74.7146H148.177V75.7032H148.245C148.365 75.3793 148.581 75.1165 148.893 74.9148C149.206 74.7131 149.558 74.6123 149.95 74.6123C150.024 74.6123 150.116 74.6137 150.227 74.6165C150.338 74.6194 150.422 74.6236 150.478 74.6293V75.6521C150.444 75.6435 150.366 75.6307 150.244 75.6137C150.125 75.5938 149.998 75.5839 149.865 75.5839C149.547 75.5839 149.262 75.6506 149.012 75.7842C148.765 75.9148 148.569 76.0967 148.424 76.3296C148.282 76.5597 148.211 76.8225 148.211 77.118V81.26H147.206ZM154.216 81.3964C153.585 81.3964 153.041 81.2572 152.583 80.9788C152.129 80.6975 151.778 80.3055 151.531 79.8026C151.287 79.2969 151.164 78.7089 151.164 78.0384C151.164 77.368 151.287 76.7771 151.531 76.2657C151.778 75.7515 152.122 75.3509 152.562 75.064C153.005 74.7742 153.522 74.6293 154.113 74.6293C154.454 74.6293 154.791 74.6861 155.123 74.7998C155.456 74.9134 155.758 75.0981 156.031 75.3538C156.304 75.6066 156.521 75.9418 156.683 76.3594C156.845 76.7771 156.926 77.2913 156.926 77.9021V78.3282H151.88V77.4589H155.903C155.903 77.0896 155.829 76.76 155.681 76.4702C155.537 76.1805 155.329 75.9518 155.059 75.7842C154.792 75.6165 154.477 75.5327 154.113 75.5327C153.713 75.5327 153.366 75.6322 153.074 75.831C152.784 76.0271 152.561 76.2827 152.404 76.5981C152.248 76.9134 152.17 77.2515 152.17 77.6123V78.1918C152.17 78.6861 152.255 79.1052 152.426 79.4489C152.599 79.7898 152.839 80.0498 153.146 80.2288C153.453 80.4049 153.809 80.493 154.216 80.493C154.48 80.493 154.718 80.456 154.931 80.3822C155.147 80.3055 155.333 80.1918 155.49 80.0413C155.646 79.8879 155.767 79.6975 155.852 79.4702L156.824 79.743C156.721 80.0725 156.549 80.3623 156.308 80.6123C156.066 80.8594 155.768 81.0526 155.413 81.1918C155.058 81.3282 154.659 81.3964 154.216 81.3964ZM153.602 73.8282L154.642 71.8509H155.818L154.488 73.8282H153.602ZM163.092 76.1805L162.189 76.4361C162.132 76.2856 162.048 76.1393 161.937 75.9972C161.829 75.8523 161.681 75.733 161.494 75.6393C161.306 75.5455 161.066 75.4986 160.774 75.4986C160.373 75.4986 160.039 75.591 159.772 75.7756C159.508 75.9575 159.376 76.189 159.376 76.4702C159.376 76.7202 159.467 76.9177 159.649 77.0626C159.831 77.2075 160.115 77.3282 160.501 77.4248L161.473 77.6634C162.058 77.8055 162.494 78.0228 162.781 78.3154C163.068 78.6052 163.211 78.9788 163.211 79.4361C163.211 79.8111 163.103 80.1464 162.887 80.4418C162.674 80.7373 162.376 80.9702 161.993 81.1407C161.609 81.3111 161.163 81.3964 160.654 81.3964C159.987 81.3964 159.434 81.2515 158.997 80.9617C158.559 80.6719 158.282 80.2486 158.166 79.6918L159.12 79.4532C159.211 79.8055 159.383 80.0697 159.636 80.2458C159.892 80.4219 160.225 80.51 160.637 80.51C161.106 80.51 161.478 80.4106 161.754 80.2117C162.032 80.01 162.172 79.7685 162.172 79.4873C162.172 79.26 162.092 79.0697 161.933 78.9163C161.774 78.76 161.529 78.6435 161.2 78.5668L160.109 78.3111C159.51 78.1691 159.069 77.9489 158.788 77.6506C158.51 77.3495 158.37 76.9731 158.37 76.5214C158.37 76.1521 158.474 75.8254 158.681 75.5413C158.892 75.2572 159.177 75.0342 159.538 74.8722C159.902 74.7103 160.314 74.6293 160.774 74.6293C161.422 74.6293 161.93 74.7714 162.299 75.0555C162.672 75.3396 162.936 75.7146 163.092 76.1805ZM168.237 81.26V72.5327H171.288C171.896 72.5327 172.397 72.6379 172.792 72.8481C173.187 73.0555 173.481 73.3353 173.674 73.6876C173.867 74.037 173.964 74.4248 173.964 74.8509C173.964 75.2259 173.897 75.5356 173.763 75.7799C173.633 76.0242 173.46 76.2174 173.244 76.3594C173.031 76.5015 172.799 76.6066 172.549 76.6748V76.76C172.816 76.7771 173.085 76.8708 173.354 77.0413C173.624 77.2117 173.85 77.456 174.032 77.7742C174.214 78.0924 174.305 78.4816 174.305 78.9418C174.305 79.3793 174.205 79.7728 174.006 80.1222C173.808 80.4717 173.494 80.7486 173.065 80.9532C172.636 81.1577 172.077 81.26 171.39 81.26H168.237ZM169.293 80.3225H171.39C172.08 80.3225 172.57 80.189 172.86 79.9219C173.153 79.6521 173.299 79.3254 173.299 78.9418C173.299 78.6464 173.224 78.3736 173.073 78.1236C172.923 77.8708 172.708 77.6691 172.43 77.5185C172.151 77.3651 171.822 77.2884 171.441 77.2884H169.293V80.3225ZM169.293 76.368H171.254C171.572 76.368 171.859 76.3055 172.114 76.1805C172.373 76.0555 172.577 75.8793 172.728 75.6521C172.881 75.4248 172.958 75.1577 172.958 74.8509C172.958 74.4674 172.825 74.1421 172.558 73.8751C172.29 73.6052 171.867 73.4702 171.288 73.4702H169.293V76.368ZM177.831 81.4134C177.416 81.4134 177.04 81.3353 176.702 81.179C176.364 81.02 176.095 80.7913 175.896 80.493C175.697 80.1918 175.598 79.8282 175.598 79.4021C175.598 79.0271 175.672 78.7231 175.82 78.4901C175.967 78.2543 176.165 78.0697 176.412 77.9361C176.659 77.8026 176.932 77.7032 177.23 77.6379C177.531 77.5697 177.834 77.5157 178.138 77.4759C178.536 77.4248 178.858 77.3864 179.105 77.3609C179.355 77.3325 179.537 77.2856 179.651 77.2202C179.767 77.1549 179.825 77.0413 179.825 76.8793V76.8452C179.825 76.4248 179.71 76.0981 179.48 75.8651C179.253 75.6322 178.908 75.5157 178.445 75.5157C177.964 75.5157 177.588 75.6208 177.315 75.831C177.043 76.0413 176.851 76.2657 176.74 76.5043L175.786 76.1634C175.956 75.7657 176.183 75.456 176.467 75.2344C176.754 75.01 177.067 74.8538 177.405 74.7657C177.746 74.6748 178.081 74.6293 178.411 74.6293C178.621 74.6293 178.862 74.6549 179.135 74.706C179.411 74.7543 179.676 74.8552 179.932 75.0086C180.19 75.162 180.405 75.3935 180.575 75.7032C180.746 76.0129 180.831 76.4276 180.831 76.9475V81.26H179.825V80.3736H179.774C179.706 80.5157 179.592 80.6677 179.433 80.8296C179.274 80.9915 179.063 81.1293 178.798 81.243C178.534 81.3566 178.212 81.4134 177.831 81.4134ZM177.984 80.51C178.382 80.51 178.717 80.4319 178.99 80.2756C179.266 80.1194 179.473 79.9177 179.612 79.6705C179.754 79.4234 179.825 79.1634 179.825 78.8907V77.9702C179.783 78.0214 179.689 78.0682 179.544 78.1109C179.402 78.1506 179.237 78.1861 179.05 78.2174C178.865 78.2458 178.685 78.2714 178.509 78.2941C178.335 78.314 178.195 78.331 178.087 78.3452C177.825 78.3793 177.581 78.4347 177.354 78.5114C177.129 78.5853 176.947 78.6975 176.808 78.8481C176.672 78.9958 176.604 79.1975 176.604 79.4532C176.604 79.8026 176.733 80.0668 176.991 80.2458C177.253 80.4219 177.584 80.51 177.984 80.51ZM182.667 81.26V74.7146H183.638V75.7032H183.706C183.826 75.3793 184.042 75.1165 184.354 74.9148C184.667 74.7131 185.019 74.6123 185.411 74.6123C185.485 74.6123 185.577 74.6137 185.688 74.6165C185.799 74.6194 185.882 74.6236 185.939 74.6293V75.6521C185.905 75.6435 185.827 75.6307 185.705 75.6137C185.586 75.5938 185.459 75.5839 185.326 75.5839C185.007 75.5839 184.723 75.6506 184.473 75.7842C184.226 75.9148 184.03 76.0967 183.885 76.3296C183.743 76.5597 183.672 76.8225 183.672 77.118V81.26H182.667ZM187.131 81.26V74.7146H188.103V75.7032H188.171C188.29 75.3793 188.506 75.1165 188.819 74.9148C189.131 74.7131 189.484 74.6123 189.876 74.6123C189.95 74.6123 190.042 74.6137 190.153 74.6165C190.263 74.6194 190.347 74.6236 190.404 74.6293V75.6521C190.37 75.6435 190.292 75.6307 190.17 75.6137C190.05 75.5938 189.924 75.5839 189.79 75.5839C189.472 75.5839 189.188 75.6506 188.938 75.7842C188.691 75.9148 188.495 76.0967 188.35 76.3296C188.208 76.5597 188.137 76.8225 188.137 77.118V81.26H187.131ZM193.522 81.4134C193.108 81.4134 192.731 81.3353 192.393 81.179C192.055 81.02 191.787 80.7913 191.588 80.493C191.389 80.1918 191.289 79.8282 191.289 79.4021C191.289 79.0271 191.363 78.7231 191.511 78.4901C191.659 78.2543 191.856 78.0697 192.103 77.9361C192.35 77.8026 192.623 77.7032 192.922 77.6379C193.223 77.5697 193.525 77.5157 193.829 77.4759C194.227 77.4248 194.549 77.3864 194.797 77.3609C195.047 77.3325 195.228 77.2856 195.342 77.2202C195.458 77.1549 195.517 77.0413 195.517 76.8793V76.8452C195.517 76.4248 195.402 76.0981 195.172 75.8651C194.944 75.6322 194.599 75.5157 194.136 75.5157C193.656 75.5157 193.279 75.6208 193.007 75.831C192.734 76.0413 192.542 76.2657 192.431 76.5043L191.477 76.1634C191.647 75.7657 191.875 75.456 192.159 75.2344C192.446 75.01 192.758 74.8538 193.096 74.7657C193.437 74.6748 193.772 74.6293 194.102 74.6293C194.312 74.6293 194.554 74.6549 194.826 74.706C195.102 74.7543 195.368 74.8552 195.623 75.0086C195.882 75.162 196.096 75.3935 196.267 75.7032C196.437 76.0129 196.522 76.4276 196.522 76.9475V81.26H195.517V80.3736H195.466C195.397 80.5157 195.284 80.6677 195.125 80.8296C194.966 80.9915 194.754 81.1293 194.49 81.243C194.225 81.3566 193.903 81.4134 193.522 81.4134ZM193.676 80.51C194.074 80.51 194.409 80.4319 194.681 80.2756C194.957 80.1194 195.164 79.9177 195.304 79.6705C195.446 79.4234 195.517 79.1634 195.517 78.8907V77.9702C195.474 78.0214 195.38 78.0682 195.235 78.1109C195.093 78.1506 194.929 78.1861 194.741 78.2174C194.556 78.2458 194.376 78.2714 194.2 78.2941C194.027 78.314 193.886 78.331 193.778 78.3452C193.517 78.3793 193.272 78.4347 193.045 78.5114C192.821 78.5853 192.639 78.6975 192.5 78.8481C192.363 78.9958 192.295 79.1975 192.295 79.4532C192.295 79.8026 192.424 80.0668 192.683 80.2458C192.944 80.4219 193.275 80.51 193.676 80.51ZM199.364 77.3225V81.26H198.358V74.7146H199.33V75.7373H199.415C199.568 75.4049 199.801 75.1379 200.114 74.9361C200.426 74.7316 200.83 74.6293 201.324 74.6293C201.767 74.6293 202.155 74.7202 202.487 74.9021C202.82 75.081 203.078 75.3538 203.263 75.7202C203.447 76.0839 203.54 76.5441 203.54 77.1009V81.26H202.534V77.1691C202.534 76.6549 202.401 76.2543 202.134 75.9674C201.866 75.6776 201.5 75.5327 201.034 75.5327C200.713 75.5327 200.426 75.6023 200.173 75.7415C199.923 75.8807 199.726 76.0839 199.581 76.3509C199.436 76.618 199.364 76.9418 199.364 77.3225ZM208.224 74.7146V75.5668H204.832V74.7146H208.224ZM205.821 73.1464H206.826V79.385C206.826 79.6691 206.868 79.8822 206.95 80.0242C207.035 80.1634 207.143 80.2572 207.274 80.3055C207.407 80.3509 207.548 80.3736 207.696 80.3736C207.806 80.3736 207.897 80.368 207.968 80.3566C208.039 80.3424 208.096 80.331 208.139 80.3225L208.343 81.2259C208.275 81.2515 208.18 81.2771 208.058 81.3026C207.936 81.331 207.781 81.3452 207.593 81.3452C207.309 81.3452 207.031 81.2842 206.758 81.162C206.488 81.0398 206.264 80.8538 206.085 80.6038C205.909 80.3538 205.821 80.0384 205.821 79.6577V73.1464ZM212.411 81.3964C211.78 81.3964 211.236 81.2572 210.779 80.9788C210.324 80.6975 209.973 80.3055 209.726 79.8026C209.482 79.2969 209.36 78.7089 209.36 78.0384C209.36 77.368 209.482 76.7771 209.726 76.2657C209.973 75.7515 210.317 75.3509 210.757 75.064C211.201 74.7742 211.718 74.6293 212.309 74.6293C212.65 74.6293 212.986 74.6861 213.319 74.7998C213.651 74.9134 213.953 75.0981 214.226 75.3538C214.499 75.6066 214.716 75.9418 214.878 76.3594C215.04 76.7771 215.121 77.2913 215.121 77.9021V78.3282H210.076V77.4589H214.098C214.098 77.0896 214.025 76.76 213.877 76.4702C213.732 76.1805 213.525 75.9518 213.255 75.7842C212.988 75.6165 212.672 75.5327 212.309 75.5327C211.908 75.5327 211.561 75.6322 211.269 75.831C210.979 76.0271 210.756 76.2827 210.6 76.5981C210.444 76.9134 210.365 77.2515 210.365 77.6123V78.1918C210.365 78.6861 210.451 79.1052 210.621 79.4489C210.794 79.7898 211.034 80.0498 211.341 80.2288C211.648 80.4049 212.005 80.493 212.411 80.493C212.675 80.493 212.914 80.456 213.127 80.3822C213.343 80.3055 213.529 80.1918 213.685 80.0413C213.841 79.8879 213.962 79.6975 214.047 79.4702L215.019 79.743C214.917 80.0725 214.745 80.3623 214.503 80.6123C214.262 80.8594 213.963 81.0526 213.608 81.1918C213.253 81.3282 212.854 81.3964 212.411 81.3964ZM221.287 76.1805L220.384 76.4361C220.327 76.2856 220.243 76.1393 220.132 75.9972C220.025 75.8523 219.877 75.733 219.689 75.6393C219.502 75.5455 219.262 75.4986 218.969 75.4986C218.569 75.4986 218.235 75.591 217.968 75.7756C217.703 75.9575 217.571 76.189 217.571 76.4702C217.571 76.7202 217.662 76.9177 217.844 77.0626C218.026 77.2075 218.31 77.3282 218.696 77.4248L219.668 77.6634C220.253 77.8055 220.689 78.0228 220.976 78.3154C221.263 78.6052 221.407 78.9788 221.407 79.4361C221.407 79.8111 221.299 80.1464 221.083 80.4418C220.87 80.7373 220.571 80.9702 220.188 81.1407C219.804 81.3111 219.358 81.3964 218.85 81.3964C218.182 81.3964 217.63 81.2515 217.192 80.9617C216.755 80.6719 216.478 80.2486 216.361 79.6918L217.316 79.4532C217.407 79.8055 217.578 80.0697 217.831 80.2458C218.087 80.4219 218.421 80.51 218.833 80.51C219.301 80.51 219.674 80.4106 219.949 80.2117C220.228 80.01 220.367 79.7685 220.367 79.4873C220.367 79.26 220.287 79.0697 220.128 78.9163C219.969 78.76 219.725 78.6435 219.395 78.5668L218.304 78.3111C217.705 78.1691 217.265 77.9489 216.983 77.6506C216.705 77.3495 216.566 76.9731 216.566 76.5214C216.566 76.1521 216.669 75.8254 216.877 75.5413C217.087 75.2572 217.373 75.0342 217.733 74.8722C218.097 74.7103 218.509 74.6293 218.969 74.6293C219.617 74.6293 220.125 74.7714 220.495 75.0555C220.867 75.3396 221.131 75.7146 221.287 76.1805Z" fill="#99A1AF"/>
<path d="M230 9.79999H518.462V47.8H230V9.79999Z" fill="#8EC5FF"/>
<path d="M230 57.9999H343V95.9999H230V57.9999Z" fill="#8EC5FF"/>
</svg>
