<svg width="80" height="80" viewBox="0 0 80 80" fill="none" xmlns="http://www.w3.org/2000/svg">
<path d="M0 40C0 17.9086 17.9086 0 40 0C62.0914 0 80 17.9086 80 40C80 62.0914 62.0914 80 40 80C17.9086 80 0 62.0914 0 40Z" fill="#2A2D3A"/>
<path d="M40.3667 23.3333H39.6333C38.7493 23.3333 37.9014 23.6845 37.2763 24.3097C36.6512 24.9348 36.3 25.7826 36.3 26.6667V26.9667C36.2994 27.5512 36.1451 28.1253 35.8526 28.6314C35.56 29.1375 35.1396 29.5577 34.6333 29.85L33.9167 30.2667C33.4099 30.5592 32.8351 30.7133 32.25 30.7133C31.6649 30.7133 31.0901 30.5592 30.5833 30.2667L30.3333 30.1333C29.5684 29.6921 28.6597 29.5724 27.8067 29.8005C26.9536 30.0286 26.2259 30.5859 25.7833 31.35L25.4167 31.9833C24.9754 32.7482 24.8557 33.6569 25.0838 34.51C25.312 35.3631 25.8692 36.0908 26.6333 36.5333L26.8833 36.7C27.3871 36.9909 27.806 37.4085 28.0984 37.9114C28.3908 38.4143 28.5465 38.985 28.55 39.5667V40.4167C28.5523 41.004 28.3994 41.5816 28.1067 42.0909C27.8141 42.6001 27.392 43.023 26.8833 43.3167L26.6333 43.4667C25.8692 43.9093 25.312 44.637 25.0838 45.49C24.8557 46.3431 24.9754 47.2518 25.4167 48.0167L25.7833 48.65C26.2259 49.4141 26.9536 49.9714 27.8067 50.1995C28.6597 50.4276 29.5684 50.3079 30.3333 49.8667L30.5833 49.7333C31.0901 49.4408 31.6649 49.2868 32.25 49.2868C32.8351 49.2868 33.4099 49.4408 33.9167 49.7333L34.6333 50.15C35.1396 50.4423 35.56 50.8625 35.8526 51.3686C36.1451 51.8747 36.2994 52.4488 36.3 53.0333V53.3333C36.3 54.2174 36.6512 55.0652 37.2763 55.6904C37.9014 56.3155 38.7493 56.6667 39.6333 56.6667H40.3667C41.2507 56.6667 42.0986 56.3155 42.7237 55.6904C43.3488 55.0652 43.7 54.2174 43.7 53.3333V53.0333C43.7006 52.4488 43.8549 51.8747 44.1474 51.3686C44.44 50.8625 44.8604 50.4423 45.3667 50.15L46.0833 49.7333C46.5901 49.4408 47.1649 49.2868 47.75 49.2868C48.3351 49.2868 48.9099 49.4408 49.4167 49.7333L49.6667 49.8667C50.4316 50.3079 51.3403 50.4276 52.1933 50.1995C53.0464 49.9714 53.7741 49.4141 54.2167 48.65L54.5833 48C55.0246 47.2351 55.1443 46.3264 54.9162 45.4733C54.688 44.6203 54.1308 43.8926 53.3667 43.45L53.1167 43.3167C52.608 43.023 52.1859 42.6001 51.8933 42.0909C51.6006 41.5816 51.4477 41.004 51.45 40.4167V39.5833C51.4477 38.996 51.6006 38.4184 51.8933 37.9092C52.1859 37.3999 52.608 36.977 53.1167 36.6833L53.3667 36.5333C54.1308 36.0908 54.688 35.3631 54.9162 34.51C55.1443 33.6569 55.0246 32.7482 54.5833 31.9833L54.2167 31.35C53.7741 30.5859 53.0464 30.0286 52.1933 29.8005C51.3403 29.5724 50.4316 29.6921 49.6667 30.1333L49.4167 30.2667C48.9099 30.5592 48.3351 30.7133 47.75 30.7133C47.1649 30.7133 46.5901 30.5592 46.0833 30.2667L45.3667 29.85C44.8604 29.5577 44.44 29.1375 44.1474 28.6314C43.8549 28.1253 43.7006 27.5512 43.7 26.9667V26.6667C43.7 25.7826 43.3488 24.9348 42.7237 24.3097C42.0986 23.6845 41.2507 23.3333 40.3667 23.3333Z" stroke="white" stroke-width="3.33333" stroke-linecap="round" stroke-linejoin="round"/>
<path d="M40 45C42.7614 45 45 42.7614 45 40C45 37.2386 42.7614 35 40 35C37.2386 35 35 37.2386 35 40C35 42.7614 37.2386 45 40 45Z" stroke="white" stroke-width="3.33333" stroke-linecap="round" stroke-linejoin="round"/>
</svg>
