<svg width="80" height="80" viewBox="0 0 80 80" fill="none" xmlns="http://www.w3.org/2000/svg">
<path d="M0 40C0 17.9086 17.9086 0 40 0C62.0914 0 80 17.9086 80 40C80 62.0914 62.0914 80 40 80C17.9086 80 0 62.0914 0 40Z" fill="#00E676"/>
<path d="M51.6666 55V51.6667C51.6666 49.8986 50.9643 48.2029 49.714 46.9526C48.4638 45.7024 46.7681 45 45 45H35C33.2319 45 31.5362 45.7024 30.2859 46.9526C29.0357 48.2029 28.3333 49.8986 28.3333 51.6667V55" stroke="white" stroke-width="3.33333" stroke-linecap="round" stroke-linejoin="round"/>
<path d="M40 38.3333C43.6819 38.3333 46.6666 35.3486 46.6666 31.6667C46.6666 27.9848 43.6819 25 40 25C36.3181 25 33.3333 27.9848 33.3333 31.6667C33.3333 35.3486 36.3181 38.3333 40 38.3333Z" stroke="white" stroke-width="3.33333" stroke-linecap="round" stroke-linejoin="round"/>
</svg>
